<svg xmlns="http://www.w3.org/2000/svg" viewBox="0 0 48 48" role="img" aria-label="Forge3D"><g transform="translate(-1.50 -1.65)"><g class="ii-body"><g><g transform="translate(3.00 3.30)"><g class="m-forge"><path d="M24 7L39 15.5L24 24L9 15.5Z" fill="#7D331B" stroke="#7D331B" stroke-width="3.2" stroke-linejoin="round"/><path d="M24 7L39 15.5L24 24L9 15.5Z" fill="#7D331B" stroke="#7D331B" stroke-width="3.2" stroke-linejoin="round"/></g><path d="M9 19V32L24 41V27.5Z" fill="#7D331B" stroke="#7D331B" stroke-width="3.2" stroke-linejoin="round"/><path d="M39 19V32L24 41V27.5Z" fill="#7D331B" stroke="#7D331B" stroke-width="3.2" stroke-linejoin="round"/><path d="M9 19V32L24 41L39 32V19M24 27.5V41M9 19L24 27.5L39 19" fill="#7D331B" stroke="#7D331B" stroke-width="3.2" stroke-linejoin="round"/></g><g transform="translate(2.50 2.75)"><g class="m-forge"><path d="M24 7L39 15.5L24 24L9 15.5Z" fill="#7D331B" stroke="#7D331B" stroke-width="3.2" stroke-linejoin="round"/><path d="M24 7L39 15.5L24 24L9 15.5Z" fill="#7D331B" stroke="#7D331B" stroke-width="3.2" stroke-linejoin="round"/></g><path d="M9 19V32L24 41V27.5Z" fill="#7D331B" stroke="#7D331B" stroke-width="3.2" stroke-linejoin="round"/><path d="M39 19V32L24 41V27.5Z" fill="#7D331B" stroke="#7D331B" stroke-width="3.2" stroke-linejoin="round"/><path d="M9 19V32L24 41L39 32V19M24 27.5V41M9 19L24 27.5L39 19" fill="#7D331B" stroke="#7D331B" stroke-width="3.2" stroke-linejoin="round"/></g><g transform="translate(2.00 2.20)"><g class="m-forge"><path d="M24 7L39 15.5L24 24L9 15.5Z" fill="#7D331B" stroke="#7D331B" stroke-width="3.2" stroke-linejoin="round"/><path d="M24 7L39 15.5L24 24L9 15.5Z" fill="#7D331B" stroke="#7D331B" stroke-width="3.2" stroke-linejoin="round"/></g><path d="M9 19V32L24 41V27.5Z" fill="#7D331B" stroke="#7D331B" stroke-width="3.2" stroke-linejoin="round"/><path d="M39 19V32L24 41V27.5Z" fill="#7D331B" stroke="#7D331B" stroke-width="3.2" stroke-linejoin="round"/><path d="M9 19V32L24 41L39 32V19M24 27.5V41M9 19L24 27.5L39 19" fill="#7D331B" stroke="#7D331B" stroke-width="3.2" stroke-linejoin="round"/></g><g transform="translate(1.50 1.65)"><g class="m-forge"><path d="M24 7L39 15.5L24 24L9 15.5Z" fill="#7D331B" stroke="#7D331B" stroke-width="3.2" stroke-linejoin="round"/><path d="M24 7L39 15.5L24 24L9 15.5Z" fill="#7D331B" stroke="#7D331B" stroke-width="3.2" stroke-linejoin="round"/></g><path d="M9 19V32L24 41V27.5Z" fill="#7D331B" stroke="#7D331B" stroke-width="3.2" stroke-linejoin="round"/><path d="M39 19V32L24 41V27.5Z" fill="#7D331B" stroke="#7D331B" stroke-width="3.2" stroke-linejoin="round"/><path d="M9 19V32L24 41L39 32V19M24 27.5V41M9 19L24 27.5L39 19" fill="#7D331B" stroke="#7D331B" stroke-width="3.2" stroke-linejoin="round"/></g><g transform="translate(1.00 1.10)"><g class="m-forge"><path d="M24 7L39 15.5L24 24L9 15.5Z" fill="#7D331B" stroke="#7D331B" stroke-width="3.2" stroke-linejoin="round"/><path d="M24 7L39 15.5L24 24L9 15.5Z" fill="#7D331B" stroke="#7D331B" stroke-width="3.2" stroke-linejoin="round"/></g><path d="M9 19V32L24 41V27.5Z" fill="#7D331B" stroke="#7D331B" stroke-width="3.2" stroke-linejoin="round"/><path d="M39 19V32L24 41V27.5Z" fill="#7D331B" stroke="#7D331B" stroke-width="3.2" stroke-linejoin="round"/><path d="M9 19V32L24 41L39 32V19M24 27.5V41M9 19L24 27.5L39 19" fill="#7D331B" stroke="#7D331B" stroke-width="3.2" stroke-linejoin="round"/></g><g transform="translate(0.50 0.55)"><g class="m-forge"><path d="M24 7L39 15.5L24 24L9 15.5Z" fill="#7D331B" stroke="#7D331B" stroke-width="3.2" stroke-linejoin="round"/><path d="M24 7L39 15.5L24 24L9 15.5Z" fill="#7D331B" stroke="#7D331B" stroke-width="3.2" stroke-linejoin="round"/></g><path d="M9 19V32L24 41V27.5Z" fill="#7D331B" stroke="#7D331B" stroke-width="3.2" stroke-linejoin="round"/><path d="M39 19V32L24 41V27.5Z" fill="#7D331B" stroke="#7D331B" stroke-width="3.2" stroke-linejoin="round"/><path d="M9 19V32L24 41L39 32V19M24 27.5V41M9 19L24 27.5L39 19" fill="#7D331B" stroke="#7D331B" stroke-width="3.2" stroke-linejoin="round"/></g></g><g><g class="m-forge"><path d="M24 7L39 15.5L24 24L9 15.5Z" fill="#FFBDA6"/><path d="M24 7L39 15.5L24 24L9 15.5Z" fill="none" stroke="#23100A" stroke-width="2.3" stroke-linecap="round" stroke-linejoin="round"/></g><path d="M9 19V32L24 41V27.5Z" fill="#EE7752"/><path d="M39 19V32L24 41V27.5Z" fill="#FFBDA6"/><path d="M9 19V32L24 41L39 32V19M24 27.5V41M9 19L24 27.5L39 19" fill="none" stroke="#23100A" stroke-width="2.3" stroke-linecap="round" stroke-linejoin="round"/></g></g></g></svg>
