<svg xmlns="http://www.w3.org/2000/svg" viewBox="0 0 48 48" role="img" aria-label="Instrumenta"><g transform="translate(-1.10 -1.25)"><g class="ii-body"><g><g transform="translate(2.20 2.50)"><g class="m-pipe w3"><rect x="4.6" y="20" width="4.6" height="13" rx=".8" fill="#6F4200" stroke="#6F4200" stroke-width="3.6" stroke-linejoin="round"/><rect x="4.6" y="20" width="4.6" height="13" rx=".8" fill="#6F4200" stroke="#6F4200" stroke-width="3.6" stroke-linejoin="round"/></g><g class="m-pipe w2"><rect x="10.2" y="15" width="4.6" height="18" rx=".8" fill="#6F4200" stroke="#6F4200" stroke-width="3.6" stroke-linejoin="round"/><rect x="10.2" y="15" width="4.6" height="18" rx=".8" fill="#6F4200" stroke="#6F4200" stroke-width="3.6" stroke-linejoin="round"/></g><g class="m-pipe w1"><rect x="15.799999999999999" y="10" width="4.6" height="23" rx=".8" fill="#6F4200" stroke="#6F4200" stroke-width="3.6" stroke-linejoin="round"/><rect x="15.799999999999999" y="10" width="4.6" height="23" rx=".8" fill="#6F4200" stroke="#6F4200" stroke-width="3.6" stroke-linejoin="round"/></g><g class="m-pipe w0"><rect x="21.4" y="5" width="4.6" height="28" rx=".8" fill="#6F4200" stroke="#6F4200" stroke-width="3.6" stroke-linejoin="round"/><rect x="21.4" y="5" width="4.6" height="28" rx=".8" fill="#6F4200" stroke="#6F4200" stroke-width="3.6" stroke-linejoin="round"/></g><g class="m-pipe w1"><rect x="27" y="10" width="4.6" height="23" rx=".8" fill="#6F4200" stroke="#6F4200" stroke-width="3.6" stroke-linejoin="round"/><rect x="27" y="10" width="4.6" height="23" rx=".8" fill="#6F4200" stroke="#6F4200" stroke-width="3.6" stroke-linejoin="round"/></g><g class="m-pipe w2"><rect x="32.6" y="15" width="4.6" height="18" rx=".8" fill="#6F4200" stroke="#6F4200" stroke-width="3.6" stroke-linejoin="round"/><rect x="32.6" y="15" width="4.6" height="18" rx=".8" fill="#6F4200" stroke="#6F4200" stroke-width="3.6" stroke-linejoin="round"/></g><g class="m-pipe w3"><rect x="38.199999999999996" y="20" width="4.6" height="13" rx=".8" fill="#6F4200" stroke="#6F4200" stroke-width="3.6" stroke-linejoin="round"/><rect x="38.199999999999996" y="20" width="4.6" height="13" rx=".8" fill="#6F4200" stroke="#6F4200" stroke-width="3.6" stroke-linejoin="round"/></g><rect x="3" y="33" width="42" height="9" rx="1.5" fill="#6F4200" stroke="#6F4200" stroke-width="3.6" stroke-linejoin="round"/><rect x="3" y="33" width="42" height="9" rx="1.5" fill="#6F4200" stroke="#6F4200" stroke-width="3.6" stroke-linejoin="round"/></g><g transform="translate(1.10 1.25)"><g class="m-pipe w3"><rect x="4.6" y="20" width="4.6" height="13" rx=".8" fill="#6F4200" stroke="#6F4200" stroke-width="3.6" stroke-linejoin="round"/><rect x="4.6" y="20" width="4.6" height="13" rx=".8" fill="#6F4200" stroke="#6F4200" stroke-width="3.6" stroke-linejoin="round"/></g><g class="m-pipe w2"><rect x="10.2" y="15" width="4.6" height="18" rx=".8" fill="#6F4200" stroke="#6F4200" stroke-width="3.6" stroke-linejoin="round"/><rect x="10.2" y="15" width="4.6" height="18" rx=".8" fill="#6F4200" stroke="#6F4200" stroke-width="3.6" stroke-linejoin="round"/></g><g class="m-pipe w1"><rect x="15.799999999999999" y="10" width="4.6" height="23" rx=".8" fill="#6F4200" stroke="#6F4200" stroke-width="3.6" stroke-linejoin="round"/><rect x="15.799999999999999" y="10" width="4.6" height="23" rx=".8" fill="#6F4200" stroke="#6F4200" stroke-width="3.6" stroke-linejoin="round"/></g><g class="m-pipe w0"><rect x="21.4" y="5" width="4.6" height="28" rx=".8" fill="#6F4200" stroke="#6F4200" stroke-width="3.6" stroke-linejoin="round"/><rect x="21.4" y="5" width="4.6" height="28" rx=".8" fill="#6F4200" stroke="#6F4200" stroke-width="3.6" stroke-linejoin="round"/></g><g class="m-pipe w1"><rect x="27" y="10" width="4.6" height="23" rx=".8" fill="#6F4200" stroke="#6F4200" stroke-width="3.6" stroke-linejoin="round"/><rect x="27" y="10" width="4.6" height="23" rx=".8" fill="#6F4200" stroke="#6F4200" stroke-width="3.6" stroke-linejoin="round"/></g><g class="m-pipe w2"><rect x="32.6" y="15" width="4.6" height="18" rx=".8" fill="#6F4200" stroke="#6F4200" stroke-width="3.6" stroke-linejoin="round"/><rect x="32.6" y="15" width="4.6" height="18" rx=".8" fill="#6F4200" stroke="#6F4200" stroke-width="3.6" stroke-linejoin="round"/></g><g class="m-pipe w3"><rect x="38.199999999999996" y="20" width="4.6" height="13" rx=".8" fill="#6F4200" stroke="#6F4200" stroke-width="3.6" stroke-linejoin="round"/><rect x="38.199999999999996" y="20" width="4.6" height="13" rx=".8" fill="#6F4200" stroke="#6F4200" stroke-width="3.6" stroke-linejoin="round"/></g><rect x="3" y="33" width="42" height="9" rx="1.5" fill="#6F4200" stroke="#6F4200" stroke-width="3.6" stroke-linejoin="round"/><rect x="3" y="33" width="42" height="9" rx="1.5" fill="#6F4200" stroke="#6F4200" stroke-width="3.6" stroke-linejoin="round"/></g></g><g><g class="m-pipe w3"><rect x="4.6" y="20" width="4.6" height="13" rx=".8" fill="#F4778E"/><rect x="4.6" y="20" width="4.6" height="13" rx=".8" fill="none" stroke="#1F1303" stroke-width="2.6" stroke-linecap="round" stroke-linejoin="round"/></g><g class="m-pipe w2"><rect x="10.2" y="15" width="4.6" height="18" rx=".8" fill="#00C3B1"/><rect x="10.2" y="15" width="4.6" height="18" rx=".8" fill="none" stroke="#1F1303" stroke-width="2.6" stroke-linecap="round" stroke-linejoin="round"/></g><g class="m-pipe w1"><rect x="15.799999999999999" y="10" width="4.6" height="23" rx=".8" fill="#BB89F2"/><rect x="15.799999999999999" y="10" width="4.6" height="23" rx=".8" fill="none" stroke="#1F1303" stroke-width="2.6" stroke-linecap="round" stroke-linejoin="round"/></g><g class="m-pipe w0"><rect x="21.4" y="5" width="4.6" height="28" rx=".8" fill="#64A5FF"/><rect x="21.4" y="5" width="4.6" height="28" rx=".8" fill="none" stroke="#1F1303" stroke-width="2.6" stroke-linecap="round" stroke-linejoin="round"/></g><g class="m-pipe w1"><rect x="27" y="10" width="4.6" height="23" rx=".8" fill="#4FBF6E"/><rect x="27" y="10" width="4.6" height="23" rx=".8" fill="none" stroke="#1F1303" stroke-width="2.6" stroke-linecap="round" stroke-linejoin="round"/></g><g class="m-pipe w2"><rect x="32.6" y="15" width="4.6" height="18" rx=".8" fill="#79ACCB"/><rect x="32.6" y="15" width="4.6" height="18" rx=".8" fill="none" stroke="#1F1303" stroke-width="2.6" stroke-linecap="round" stroke-linejoin="round"/></g><g class="m-pipe w3"><rect x="38.199999999999996" y="20" width="4.6" height="13" rx=".8" fill="#F57E59"/><rect x="38.199999999999996" y="20" width="4.6" height="13" rx=".8" fill="none" stroke="#1F1303" stroke-width="2.6" stroke-linecap="round" stroke-linejoin="round"/></g><rect x="3" y="33" width="42" height="9" rx="1.5" fill="#D58E00"/><rect x="3" y="33" width="42" height="9" rx="1.5" fill="none" stroke="#1F1303" stroke-width="3.4" stroke-linecap="round" stroke-linejoin="round"/></g></g></g></svg>
